<svg xmlns="http://www.w3.org/2000/svg" viewBox="0 0 208.5 42" enable-background="new 0 0 208.5 42"><g fill="#fff"><path d="m27.8 20.9c0 3.8-2.6 7.1-6.9 7.1-4.4 0-6.9-3.3-6.9-7.1 0-3.8 2.6-7.1 6.9-7.1 4.3-.1 6.9 3.2 6.9 7.1"/><path d="m41.7 20.9c0-6.2-2.6-11.9-7-15.7v15.7c0 7.7-5.2 14.3-13.9 14.3s-13.8-6.7-13.8-14.3 5.1-14.3 13.9-14.3c2.7 0 5 .6 6.9 1.7v-7.2c-2.1-.7-4.5-1.1-6.9-1.1-12.3 0-20.9 9.5-20.9 20.9 0 11.4 8.6 20.9 20.9 20.9 12.2-.1 20.8-9.6 20.8-20.9"/><path d="M47.4,6.6h9.5V9h-6.7v2.5h5.9V14h-5.9v2.6H57v2.5h-9.5V6.6z"/><path d="m58.4 9.5h2.7v1.4c.6-.8 1.4-1.5 2.8-1.5 2.1 0 3.3 1.4 3.3 3.6v6.2h-2.7v-5.4c0-1.3-.6-2-1.6-2-1 0-1.7.7-1.7 2v5.4h-2.7v-9.7z"/><path d="m68.9 21l.9-2c1 .6 2 .9 3.2.9 1.9 0 2.7-.9 2.7-2.6v-.5c-.8 1-1.7 1.6-3.1 1.6-2.2 0-4.3-1.6-4.3-4.5 0-2.9 2.1-4.5 4.3-4.5 1.5 0 2.4.6 3.1 1.4v-1.3h2.7v7.4c0 1.7-.4 3-1.2 3.8-.8.9-2.2 1.3-4 1.3-1.6 0-3.1-.4-4.3-1m6.9-7.2c0-1.3-1-2.3-2.3-2.3-1.3 0-2.3.9-2.3 2.2 0 1.3 1 2.2 2.3 2.2 1.3.2 2.3-.8 2.3-2.1"/><path d="M80.4,6h2.7v13.1h-2.7V6z"/><path d="M85,6h2.9v2.4H85V6z M85.1,9.5h2.7v9.6h-2.7V9.5z"/><path d="m88.9 17.8l1.1-1.8c1 .8 2.1 1.1 3 1.1.8 0 1.1-.3 1.1-.7 0-.6-.9-.8-2-1.1-1.3-.4-2.9-1-2.9-2.9 0-2 1.6-3 3.5-3 1.2 0 2.5.4 3.6 1.1l-1 1.9c-.9-.6-1.9-.9-2.6-.9-.7 0-1 .3-1 .7 0 .5.9.8 2 1.1 1.3.4 2.9 1.1 2.9 2.8 0 2.1-1.6 3.1-3.7 3.1-1.3.1-2.8-.4-4-1.4"/><path d="m97.9 6h2.7v4.8c.6-.8 1.4-1.5 2.8-1.5 2.1 0 3.3 1.4 3.3 3.6v6.2h-2.7v-5.4c0-1.3-.6-2-1.6-2-1 0-1.7.7-1.7 2v5.4h-2.7v-13.1z"/><path d="m57 30.5c0 0 0 0 0 0 0-2.6-1.9-4.9-4.8-4.9-2.9 0-4.8 2.3-4.8 4.9 0 2.6 1.9 4.9 4.8 4.9 2.8 0 4.8-2.3 4.8-4.9m-1.1.1c0 2.1-1.5 3.9-3.7 3.9-2.2 0-3.7-1.8-3.7-3.9 0-2.1 1.5-3.9 3.7-3.9 2.1-.1 3.7 1.7 3.7 3.9"/><path d="m57.8 35.3h1.2l2.2-2.9 2.1 2.9h1.2l-2.7-3.6 2.6-3.4h-1.1l-2.1 2.7-2.1-2.7h-1.2l2.7 3.4-2.8 3.6"/><path d="m66.1 35.3h1v-6.1h2.2v-.9h-2.2v-.6c0-1 .4-1.5 1.2-1.5.4 0 .6.1 1 .2v-.9c-.3-.1-.7-.2-1.1-.2-.6 0-1.1.2-1.5.5-.4.4-.6 1-.6 1.8v.6h-1v.9h1v6.2"/><path d="m76.8 31.8c0-2-1.5-3.6-3.6-3.6-2.1 0-3.6 1.7-3.6 3.6 0 2 1.5 3.6 3.6 3.6 2 0 3.6-1.6 3.6-3.6m-1.1 0c0 1.5-1.1 2.7-2.6 2.7-1.5 0-2.6-1.2-2.6-2.7 0-1.5 1-2.7 2.6-2.7 1.5 0 2.6 1.2 2.6 2.7"/><path d="m78.1 35.3h1v-2.8c0-2.1 1.2-3.2 2.8-3.2h.1v-1.1c-1.3-.1-2.3.8-2.8 1.9v-1.8h-1v7h-.1"/><path d="m89.4 35.3v-9.9h-1v4.2c-.5-.8-1.4-1.5-2.7-1.5-1.7 0-3.3 1.3-3.3 3.6 0 2.3 1.7 3.6 3.3 3.6 1.3 0 2.1-.7 2.7-1.6v1.4h1v.2m-1-3.5c0 1.6-1.2 2.7-2.5 2.7-1.3 0-2.5-1.1-2.5-2.7 0-1.7 1.1-2.7 2.5-2.7 1.3 0 2.5 1.1 2.5 2.7"/><path d="m145.5 30.6c0-2.7-2.1-4.7-5-4.7h-3.3v9.4h3.3c3 0 5-2.1 5-4.7m-1.1 0c0 2.1-1.5 3.7-3.9 3.7h-2.2v-7.5h2.2c2.4 0 3.9 1.7 3.9 3.8"/><path d="m147.1 26.8h1.2v-1.2h-1.2v1.2"/><path d="m147.1 35.3h1.1v-7h-1.1v7"/><path d="m153.2 35.5c1.3 0 2.1-.6 2.8-1.3l-.7-.6c-.6.6-1.2 1-2.1 1-1.5 0-2.6-1.2-2.6-2.7 0-1.5 1.1-2.7 2.5-2.7.9 0 1.6.5 2.1 1.1l.7-.7c-.6-.7-1.5-1.2-2.8-1.2-2 0-3.6 1.7-3.6 3.6.1 1.8 1.7 3.5 3.7 3.5"/><path d="m159.6 35.4c.5 0 .9-.1 1.3-.3v-.9c-.4.2-.7.2-1 .2-.7 0-1.2-.3-1.2-1.2v-4.1h2.2v-.9h-2.2v-2.1h-1v2.1h-1v.9h1v4.2c-.1 1.6.7 2.1 1.9 2.1"/><path d="m162.2 26.8h1.2v-1.2h-1.2v1.2"/><path d="m162.2 35.3h1.1v-7h-1.1v7"/><path d="m172 31.8c0-2-1.5-3.6-3.6-3.6-2.1 0-3.6 1.7-3.6 3.6 0 2 1.5 3.6 3.6 3.6 2 .1 3.6-1.6 3.6-3.6m-1.1 0c0 1.5-1.1 2.7-2.6 2.7-1.5 0-2.6-1.2-2.6-2.7 0-1.5 1-2.7 2.6-2.7 1.5 0 2.6 1.2 2.6 2.7"/><path d="m173.3 35.3h1v-4c0-1.3.9-2.2 2.1-2.2 1.2 0 1.9.8 1.9 2.1v4.1h1v-4.3c0-1.7-1-2.8-2.7-2.8-1.2 0-1.9.6-2.4 1.4v-1.2h-1v6.9h.1"/><path d="m186.7 35.3v-4.3c0-.9-.2-1.6-.7-2.1-.5-.5-1.3-.8-2.3-.8-1 0-1.8.2-2.5.6l.3.9c.6-.3 1.3-.5 2.1-.5 1.3 0 2.1.6 2.1 1.9v.2c-.6-.2-1.2-.3-2.1-.3-1.8 0-3 .8-3 2.3 0 1.4 1.3 2.2 2.6 2.2 1.2 0 2-.6 2.5-1.2v1h1v.1m-1-2.6c0 1.1-1 1.9-2.3 1.9-.9 0-1.8-.5-1.8-1.4 0-.8.7-1.4 2-1.4.8 0 1.5.1 2 .3v.6h.1"/><path d="m188.4 35.3h1v-2.8c0-2.1 1.2-3.2 2.8-3.2h.1v-1.1c-1.3-.1-2.3.8-2.8 1.9v-1.8h-1v7h-.1"/><path d="m193.3 26.8h1.2v-1.2h-1.2v1.2"/><path d="m193.4 35.3h1v-7h-1v7"/><path d="m202.5 31.9c0-2.1-1.2-3.7-3.3-3.7-1.9 0-3.3 1.6-3.3 3.6 0 2.2 1.6 3.6 3.5 3.6 1.3 0 2.2-.5 2.9-1.3l-.6-.6c-.6.6-1.2 1-2.2 1-1.2 0-2.3-.9-2.5-2.3h5.5c0-.1 0-.2 0-.3m-1.1-.5h-4.5c.1-1.3 1.1-2.3 2.3-2.3 1.4-.1 2.1 1 2.2 2.3"/><path d="m206.1 35.4c1.4 0 2.5-.8 2.5-2.1 0-1.3-1.2-1.7-2.2-2-.9-.3-1.8-.5-1.8-1.2 0-.6.5-1 1.3-1 .7 0 1.4.3 2.1.7l.5-.8c-.7-.5-1.7-.8-2.5-.8-1.4 0-2.4.8-2.4 2 0 1.3 1.2 1.7 2.3 2 .9.3 1.7.5 1.7 1.2 0 .7-.6 1.1-1.4 1.1-.8 0-1.7-.3-2.4-.9l-.5.7c.7.7 1.8 1.1 2.8 1.1"/><path d="m133.6 28.9c0-.1-.1-.1-.1-.2-.2-.4-.6-.6-1.1-.6-.2 0-.4.1-.6.1-.4.1-.8.2-1.1.4-.5.3-1 .6-1.5 1-.3.3-.7.6-1 1-.2.3-.5.6-.7.9-.3.4-.5.9-.7 1.4-.1.2-.1.3-.1.5 0 .2-.1.4-.1.6 0 .4.1.7.3 1 .1.1.2.1.3.2.3.1.6.1.8-.1.2-.1.4-.3.7-.4.6-.4 1.1-1 1.6-1.5.2-.3.4-.5.7-.8.1-.1.1-.1.2-.2.1-.1.1 0 .1.1 0 0 0 .1 0 .1 0 .1 0 .2-.1.3-.1.4-.2.8-.3 1.1-.2.6-.3 1.3-.5 1.9-.1.3-.1.6-.2.8-.1.3-.2.7-.4 1-.1.3-.2.6-.4.8-.2.4-.5.8-.7 1.2-.3.4-.7.8-1.2 1.1-.3.2-.7.4-1.1.4-.4 0-.7 0-1-.2-.1-.1-.2-.2-.3-.3-.1-.1-.2-.2-.4-.3-.1 0-.2 0-.3 0-.2.1-.4.1-.5.3-.1.1-.2.2-.3.3-.1.1-.1.2 0 .3 0 .1.1.2.2.2.2.2.4.3.7.3.3 0 .5 0 .8.1.2 0 .4.1.6.1.3 0 .6 0 .8-.1.3-.1.6-.2.9-.3.6-.3 1.2-.7 1.7-1.2.7-.7 1.2-1.5 1.5-2.4.3-.8.6-1.7.8-2.5.1-.6.3-1.2.4-1.7.2-.8.4-1.5.6-2.3.1-.2.1-.4.2-.7 0-.1.1-.3 0-.4 0-.1 0-.1 0-.1.1 0 .1-.1.2-.1.2-.2.4-.4.5-.6.1-.1.1-.3.1-.5m-1 1.1c-.1.1-.2.2-.3.2-.3 0-.4.2-.6.4-.2.2-.3.5-.5.7-.2.3-.4.5-.6.8-.1.1-.3.3-.4.4-.3.4-.7.7-1.1 1.1-.2.2-.5.3-.7.5-.1 0-.2.1-.3.1-.2 0-.3-.1-.3-.3 0-.1 0-.1 0-.1 0-.3 0-.5.1-.7.3-.8.6-1.4 1.1-2.1.2-.3.5-.6.8-.8.3-.3.7-.5 1-.7.2-.1.5-.2.7-.3.3-.1.6 0 .9.2.3.1.4.3.2.6"/><path d="m124.2 35.4c-.4-.1-.7-.3-.8-.7-.1-.3-.2-.5-.2-.8 0-.4 0-.7.1-1.1.1-.4.2-.7.3-1.1.1-.4.2-.7.4-1.1 0-.1.1-.3.1-.4 0-.1 0-.1 0-.2 0 0 0-.1-.1-.1 0 0-.1 0-.1 0-.2.1-.4.2-.6.4-.5.5-1 .9-1.4 1.5-.4.4-.7.9-1 1.4-.3.5-.6 1-.9 1.5-.1.2-.2.3-.3.5 0 .1-.1.1-.2.2-.1.1-.2.1-.3 0-.1-.1-.2-.1-.2-.2 0-.1 0-.1 0-.2 0-.2 0-.3 0-.5.1-.6.3-1.2.4-1.7.1-.4.2-.8.3-1.1.1-.4.2-.8.3-1.1.1-.3.2-.7.3-1 .1-.3.3-.6.5-.9.1-.1.1-.1.2-.2.1-.1.3-.1.4-.1.1 0 .1 0 .2.1.2.1.3.3.3.5 0 .1 0 .1 0 .2 0 .1 0 .1-.1.2 0 0 0 0-.1 0-.1 0-.2.1-.3.2-.1.2-.3.4-.3.6-.1.3-.2.6-.3.9-.1.4-.2.7-.3 1.1 0 0 0 .1 0 .1 0 0 0 .1 0 .1 0 0 .1 0 .1 0 0 0 .1-.1.1-.1.4-.5.8-1 1.3-1.4.4-.4.8-.8 1.2-1.2.3-.3.6-.5.9-.7.1-.1.3-.1.4-.2.1 0 .2-.1.3-.1.1 0 .1-.1.2-.2 0-.1.1-.1.2-.2.1-.2.3-.1.4 0 .1.1.2.2.3.3.1.1 0 .3 0 .4-.1.2-.1.3-.2.4-.1.1-.1.2-.2.2-.2.3-.3.6-.5.9-.1.3-.3.6-.4.8-.2.4-.4.9-.5 1.4-.1.3-.1.6-.1.9 0 .2 0 .4.1.5.1.2.3.3.5.4.2 0 .4 0 .6-.1.1 0 .2-.1.2-.1.2-.1.3-.2.5-.3.1-.1.2 0 .2.1.1.2-1.1 1.4-1.9 1.3"/><path d="m93.9 34.1c0-.2 0-.5.1-.7.1-.5.2-1 .4-1.5.2-.7.4-1.4.7-2 .2-.5.4-1 .6-1.5.2-.6.5-1.2.7-1.8.2-.5.5-1.1.7-1.6.1-.2.3-.5.4-.7.1-.1.1-.1.2-.2.1-.1.2-.1.3 0 0 0 .1 0 .1.1.2.2.3.5.2.8 0 .1-.1.3-.2.4-.2.4-.4.8-.6 1.2-.2.4-.4.9-.6 1.4-.3.6-.5 1.2-.8 1.8-.2.6-.5 1.3-.7 1.9-.1.4-.2.8-.3 1.1-.1.2-.1.5-.1.7 0 .2 0 .3 0 .5 0 0 0 .1 0 .1 0 .1.2.2.3.2.1 0 .3-.1.4-.1.4-.1.8-.3 1.2-.5.6-.3 1.2-.5 1.7-.8.4-.2.8-.4 1.2-.7.3-.2.7-.4 1-.7.1-.1.2-.2.2-.2 0 0 .1-.1.1-.1.1-.1.2 0 .2.1 0 .1 0 .3-.1.4-.1.1-.2.3-.3.4-.2.2-.4.4-.7.6-.8.6-1.7 1.1-2.6 1.6-.4.2-.8.4-1.2.6-.5.2-.9.4-1.4.5-.2.1-.4.1-.7.1-.2 0-.3-.1-.4-.2-.1-.1-.2-.3-.2-.4.2-.3.2-.5.2-.8"/><path d="m109 29.2c0 .1 0 .2 0 .3 0 .2 0 .4-.1.5-.1.1-.1.2-.2.3-.2.3-.4.7-.5 1.1-.2.4-.3.9-.3 1.4 0 .2-.1.5-.1.7 0 .1 0 .3 0 .5 0 .1 0 .2.1.2 0 .1.1.1.2.1.1 0 .1 0 .2-.1.3-.1.6-.3.9-.4.2-.1.3-.2.5-.3.2-.2.5-.4.7-.6.4-.4.9-.8 1.2-1.2.2-.3.4-.5.6-.9.1-.1.1-.2.2-.3 0 0 0 0 0-.1 0-.1 0-.2-.1-.3-.1-.2-.2-.3-.3-.5 0-.1 0-.2 0-.3 0-.1 0-.1 0-.2.1-.2.3-.4.5-.6.1-.1.2-.1.3-.1.1 0 .2 0 .3.1.1.1.1.2.2.3.1.2.1.3.1.5 0 0 0 .1 0 .1 0 .1.1.2.2.3 0 0 .1 0 .1.1.1 0 .2.1.3.1.1 0 .1 0 .2 0 .1 0 .2.1.4.1.1 0 .1.1.1.1 0 .1-.3.5-.9.5-.1 0-.2 0-.3 0-.1 0-.1 0-.2.1 0 0 0 .1-.1.1-.1.2-.2.4-.3.6-.1.2-.3.5-.5.7-.5.6-1 1.1-1.6 1.6-.3.3-.7.5-1 .7-.5.3-1 .6-1.5.9-.1.1-.3.1-.4.2-.1 0-.2.1-.3.1-.1 0-.2 0-.3-.1-.1-.1-.2-.3-.2-.4-.1-.3-.1-.6-.1-1 0-.3 0-.7.1-1 0-.1 0-.2.1-.4 0-.2.1-.4.1-.6 0-.2.1-.4.1-.5.1-.2.1-.4.2-.6 0 0 .1-.1 0-.2 0 0-.1-.1-.1-.1-.1-.1-.1-.1-.1-.2 0-.1 0-.2.1-.3.1-.4.3-.8.6-1.1.1-.1.2-.3.4-.4.1-.1.2-.1.3-.1.1 0 .2 0 .3.1.1.1.1.3.1.4-.2-.1-.2 0-.2.1"/><path d="m105.3 34.3c-.1.1-.5.5-1.4 1-.2.1-.4.2-.6.2-.1 0-.2 0-.3 0-.1 0-.2-.1-.3-.2-.3-.2-.4-.5-.5-.9 0-.2 0-.4 0-.6 0-.1.1-.3.1-.4.2-.5.3-.9.5-1.4.1-.3.2-.5.3-.8 0 0 0-.1 0-.1 0-.1.1-.3 0-.4-.1-.2 0-.4.1-.6.1-.2.2-.4.3-.6.2-.3.4-.6.7-.9.1-.1.2-.2.4-.3.1 0 .1-.1.2-.1.1-.1.3 0 .4.1.1.1.2.3.2.4 0 .1 0 .2-.1.3-.1.1-.1.2-.2.4-.3.5-.6 1.1-.8 1.6-.3.6-.5 1.2-.7 1.8-.1.2-.2.5-.2.7 0 .1 0 .2 0 .3 0 .1 0 .1 0 .2 0 .1.1.2.3.2.1 0 .2 0 .3 0 .2 0 .4-.1.5-.2.2-.1.4-.2.6-.3.2-.1.4-.2.6-.2 0 0 .1 0 .1 0 0 .2-.5.7-.5.8"/><path d="m118 33.3c.2 0 0 .4 0 .5-.1.2-.6.8-1.6 1.4-.2.1-.4.2-.7.2-.4 0-.6-.1-.8-.4-.1-.2-.2-.4-.2-.6 0-.3 0-.6.1-.9.1-.4.3-.9.4-1.3.1-.4.2-.7.4-1.1.1-.2 0-.7.1-1 .1-.4.6-.9.7-1 .1-.1.1-.1.2-.2.1-.1.2-.2.3-.2 0 0 .1-.1.1-.1.1-.1.2-.2.3-.3.1-.1.1-.1.2-.1.1 0 .1 0 .1.1.1.1.2.2.2.4 0 .1 0 .3-.1.4 0 .1-.1.2-.1.3-.3.5-.6 1.1-.8 1.7-.3.6-.5 1.2-.7 1.8-.1.3-.2.6-.2.9 0 .1 0 .3 0 .4 0 .1 0 .1 0 .2 0 .1.1.2.3.2.1 0 .2 0 .3-.1.2-.1.5-.2.7-.4.3-.2.5-.4.7-.6 0-.1 0-.2.1-.2"/><path d="m104.7 25.4c.1 0 .2 0 .3.1.2.1.3.2.3.5 0 0 0 .1 0 .1-.1.4-.1.9-.1 1.3 0 .1 0 .1 0 .2 0 .1-.1.2-.2.2-.2 0-.3-.1-.4-.2-.2-.1-.3-.3-.3-.6-.1-.2-.1-.5-.1-.8 0-.2 0-.3.1-.5.1-.2.2-.2.3-.3 0 0 0 0 .1 0"/><path d="m117.7 27.1c0 .1 0 .2 0 .3 0 .1 0 .1 0 .2 0 .1-.1.1-.1.1-.1 0-.1 0-.2 0-.3-.1-.5-.3-.6-.6-.1-.1-.1-.3-.1-.5 0-.3 0-.5 0-.8 0-.1 0-.1.1-.2.1-.1.2-.2.3-.2.1 0 .3 0 .4 0 .2.1.3.2.3.5 0 .1 0 .1 0 .2 0 .1 0 .1 0 .2-.1.2-.1.5-.1.8"/></g></svg>