<svg xmlns="http://www.w3.org/2000/svg" viewBox="-33 14 184.6 30" enable-background="new -33 14 184.6 30"><g fill="#fff"><path d="m-23.5 26.5c0-.6-.3-1.1-.8-1.5-.5-.4-1.2-.5-2-.5h-4.5l-.1.5c.1 0 .3 0 .5.1.2 0 .3.1.5.1.1 0 .2.1.2.2 0 .1.1.2.1.3 0 0 0 .1 0 .1 0 .1 0 .1 0 .1l-1.7 7.3c0 .2-.1.3-.2.4-.1.1-.2.2-.4.3-.1 0-.3.1-.5.1-.2 0-.4 0-.5 0l-.1.5h4.3l.1-.5c-.2 0-.4 0-.6 0-.2 0-.4-.1-.4-.1-.1 0-.2-.1-.2-.2 0-.1-.1-.2-.1-.3 0 0 0-.1 0-.1 0 0 0-.1 0-.1l.7-3.1h1.2c.6 0 1.1-.1 1.6-.2.5-.2 1-.4 1.4-.7.4-.3.7-.7 1-1.1.3-.5.5-1 .5-1.6m-1.8.1c0 .3 0 .6-.1.9-.1.3-.2.6-.4.9-.2.4-.6.6-1 .8-.4.2-.9.3-1.4.3h-.8l1-4.5h.9c.3 0 .6 0 .8.1.2.1.4.2.5.4.1.2.2.3.3.5.2.2.2.4.2.6"/><path d="m-17 30.2c0-.8-.2-1.5-.7-2-.5-.5-1.1-.8-2-.8-.6 0-1.2.1-1.7.4-.5.3-1 .6-1.3 1-.3.4-.6.9-.8 1.4-.2.5-.3 1.1-.3 1.8 0 .9.2 1.5.7 2 .5.5 1.1.8 1.9.8.7 0 1.3-.1 1.8-.4.5-.3.9-.6 1.3-1 .4-.4.6-.9.8-1.5.2-.6.3-1.2.3-1.7m-1.4-.3c0 .5-.1 1.1-.2 1.6-.1.5-.3 1-.5 1.4-.2.4-.5.7-.8 1-.3.3-.7.4-1.1.4-.5 0-.8-.2-1.1-.5-.2-.3-.4-.9-.4-1.5 0-.4 0-.9.1-1.4.1-.5.2-1 .4-1.4.2-.5.5-.9.9-1.2.3-.2.7-.4 1.1-.4.4 0 .8.2 1 .5.5.3.6.8.6 1.5"/><path d="m-5.5 27.7c-.2-.2-.4-.3-.7-.3-.2 0-.4.1-.6.2-.1.1-.2.3-.2.6 0 .2 0 .4.1.5.1.1.2.3.3.4.1.1.2.2.3.4.1.2.1.4.1.7 0 .5-.1 1-.2 1.4-.2.4-.4.8-.7 1.2-.2.3-.5.6-.9.8-.3.2-.7.3-1 .3-.1 0-.2 0-.4 0-.1 0-.3-.1-.4-.1-.1-.1-.2-.2-.3-.3-.1-.2-.1-.4-.1-.6 0-.1 0-.2.1-.4 0-.2.1-.4.1-.5l1-4.3-.1-.1-1.2.1-1.3 5.4c-.3.3-.6.5-.9.7-.3.2-.6.2-.9.2-.3 0-.6-.1-.7-.3-.1-.2-.2-.4-.2-.8 0-.1 0-.2 0-.4 0-.2.1-.4.1-.5l.7-2.6c0-.1.1-.3.1-.4 0-.1 0-.3 0-.3 0-.3-.1-.6-.3-.8-.2-.2-.5-.3-.8-.3-.2 0-.4 0-.7.1-.3.1-.6.2-1 .4l-.1.5c.1 0 .2-.1.4-.1.2 0 .3-.1.4-.1.3 0 .4 0 .5.1.1.1.1.3.1.5 0 .1 0 .3 0 .4 0 .2-.1.4-.1.6l-.6 2.2c0 .1 0 .2-.1.4 0 .1 0 .3 0 .3 0 .2 0 .5.1.7.1.2.2.4.3.6.1.2.3.3.6.4.2.1.5.2.9.2.3 0 .5 0 .7-.1.2-.1.4-.2.6-.3.2-.2.4-.3.6-.4.1-.1.3-.3.5-.5.1.4.4.8.8 1 .4.2.8.4 1.2.4.6 0 1.2-.2 1.7-.5.5-.3 1-.8 1.4-1.4.4-.6.7-1.2.9-1.9.2-.7.3-1.5.3-2.2-.2-.6-.3-1-.4-1.2"/><path d="m1.4 28.8c0-.4-.2-.8-.5-1.1-.3-.3-.8-.4-1.5-.4-.6 0-1.2.1-1.7.4-.5.3-.9.6-1.3 1.1-.4.4-.6.9-.8 1.5-.2.5-.3 1.1-.3 1.7 0 .9.2 1.5.7 2 .4.5 1.1.7 1.9.7.6 0 1.2-.2 1.8-.5.6-.3 1-.8 1.4-1.4l-.4-.3c-.4.5-.7.8-1.1 1.1-.4.2-.8.4-1.2.4-.5 0-.9-.2-1.2-.6-.3-.4-.4-1-.4-1.7.5-.1 1-.1 1.5-.2.4-.1.9-.2 1.3-.4.6-.2 1.1-.5 1.4-.9.3-.4.4-.9.4-1.4m-1.3-.1c0 .4-.1.8-.3 1.1-.2.3-.5.6-.9.8-.3.1-.6.3-1 .3-.4.1-.8.2-1.1.2.1-.9.4-1.7.9-2.3.5-.6 1-.9 1.6-.9.1 0 .2 0 .3 0 .1 0 .2 0 .3.1 0 0 .1.1.1.2.1.1.1.3.1.5"/><path d="m8.1 28c0-.1-.1-.2-.2-.3-.1-.1-.2-.2-.4-.2-.1 0-.3-.1-.4-.1-.3 0-.6.1-.9.3-.3.2-.7.5-1.3 1 0-.4-.1-.7-.2-.9-.2-.2-.4-.3-.8-.3-.2 0-.4 0-.7.1-.3.1-.6.2-1 .4l-.2.4c.1 0 .2-.1.4-.1.2 0 .3-.1.4-.1.3 0 .4 0 .5.1.1.1.1.3.1.5 0 .1 0 .3-.1.5 0 .2-.1.4-.1.5l-1 4.6h1.3l1.1-5.1c.3-.3.5-.5.7-.7.2-.2.4-.3.6-.4.2-.1.3-.1.5-.2.1 0 .2 0 .3 0-.1.2-.1.4-.2.5-.1.2-.1.3-.1.5 0 .2.1.3.2.4.1.1.3.2.6.2.2 0 .3 0 .4-.1.1-.1.2-.2.3-.3.1 0 .2-.1.2-.2 0-.2.1-.3.1-.4 0-.3-.1-.5-.1-.6"/><path d="m14.4 28.8c0-.4-.2-.8-.5-1.1-.3-.3-.8-.4-1.5-.4-.6 0-1.2.1-1.7.4-.5.3-.9.6-1.3 1.1-.4.4-.6.9-.8 1.5-.2.5-.3 1.1-.3 1.7 0 .9.2 1.5.7 2 .4.5 1.1.7 1.9.7.6 0 1.2-.2 1.8-.5.6-.3 1-.8 1.4-1.4l-.4-.3c-.3.5-.7.8-1.1 1.1-.4.2-.8.4-1.2.4-.5 0-.9-.2-1.2-.6-.3-.4-.4-1-.4-1.7.5-.1 1-.1 1.5-.2.4-.1.9-.2 1.3-.4.6-.2 1.1-.5 1.4-.9.2-.4.4-.9.4-1.4m-1.3-.1c0 .4-.1.8-.3 1.1-.2.3-.5.6-.9.8-.3.1-.6.3-1 .3-.4.1-.8.2-1.1.2.1-.9.4-1.7.9-2.3.5-.6 1-.9 1.6-.9.1 0 .2 0 .3 0 .1 0 .2 0 .3.1.1.1.1.1.2.2-.1.1 0 .3 0 .5"/><path d="m22.9 23.7l-.1-.1-2.8.1-.1.4c.2 0 .3 0 .5 0 .2 0 .4 0 .5.1.1 0 .2.1.3.2.1.1.1.2.1.4 0 .1 0 .2 0 .2 0 .1 0 .2-.1.3l-.6 2.4c-.2-.1-.5-.2-.8-.3-.3-.1-.6-.1-1-.1-.5 0-1.1.1-1.6.4-.5.3-.9.6-1.3 1-.4.4-.7.9-.9 1.5-.2.6-.3 1.1-.3 1.7 0 .9.2 1.5.6 2 .4.5.9.7 1.6.7.3 0 .5 0 .7-.1.2-.1.4-.2.6-.3.2-.1.4-.2.5-.4.2-.1.3-.3.4-.4 0 .4.1.6.3.8.2.2.5.3.8.3.2 0 .5 0 .7-.1.3-.1.6-.2 1-.4l.1-.5c-.1 0-.2.1-.4.1-.2 0-.3 0-.4 0-.3 0-.5 0-.6-.1-.1-.1-.2-.3-.2-.5 0-.1 0-.3.1-.5 0-.2.1-.4.1-.5l2.3-8.3m-2.6 5.3l-.9 3.8c-.4.4-.7.7-1 .8-.3.2-.6.2-.8.2-.3 0-.5-.1-.7-.2-.2-.1-.3-.2-.4-.4-.1-.2-.2-.4-.2-.6 0-.2 0-.5 0-.8 0-.5.1-1 .2-1.5.1-.5.3-1 .6-1.3.2-.4.5-.7.9-.9.3-.2.7-.3 1-.3.2 0 .4 0 .6.1.2.1.3.2.4.3.1.1.2.2.2.4.1.2.1.3.1.4"/><path d="m33.1 30.1c0-.8-.2-1.5-.6-2-.4-.5-1-.7-1.7-.7-.3 0-.6.1-.9.2-.3.1-.7.4-1.1.8l1.1-4.7-.1-.1-2.6.2-.2.3c.2 0 .3 0 .5 0 .2 0 .3 0 .4.1.1 0 .2.1.2.2.1.1.1.2.1.4 0 .1 0 .2 0 .2 0 .1 0 .2-.1.3l-1.8 8c.1.2.2.4.4.5.1.2.3.3.6.4.2.1.5.2.8.3.3.1.7.1 1.1.1.5 0 1-.1 1.5-.4.5-.2.9-.6 1.3-1 .4-.4.7-.9.9-1.5.1-.4.2-1 .2-1.6m-1.4 0c0 .5-.1 1-.2 1.5-.1.5-.3 1-.6 1.4-.2.4-.5.7-.8.9-.3.2-.7.3-1.1.3-.2 0-.4 0-.5-.1-.2-.1-.3-.1-.4-.2-.1-.1-.2-.2-.3-.3-.1-.1-.1-.2-.1-.3l.9-4.2c.1-.1.2-.2.4-.3.1-.1.3-.2.4-.3.2-.1.3-.2.5-.2.1-.1.3-.1.5-.1.3 0 .5.1.7.2.2.1.3.2.4.4.1.2.2.4.2.6 0 .2 0 .5 0 .7"/><path d="m37.9 35.2c-.2.5-.5.9-.7 1.2-.3.3-.5.5-.8.6-.3.1-.6.2-.9.2h-.2c0-.1-.1-.2-.2-.4-.1-.2-.1-.3-.2-.4-.1-.1-.2-.2-.3-.3-.1-.1-.3-.1-.4-.1-.2 0-.4.1-.5.2-.1.2-.2.3-.2.5 0 .1 0 .2.1.4 0 .1.1.2.3.3.1.1.3.2.6.2.2.1.6.1 1 .1.6 0 1.1-.1 1.6-.2.5-.2.9-.4 1.3-.8.4-.4.7-.8 1-1.4.3-.6.5-1.3.7-2.1l1.2-5.5-.1-.1-1.2.1-1.2 5.3c-.3.3-.6.5-.9.7-.3.2-.7.3-1 .3-.3 0-.5-.1-.7-.3-.2-.2-.2-.4-.2-.8 0-.1 0-.2 0-.4 0-.2.1-.4.1-.6l.6-2.6c0-.1.1-.3.1-.4 0-.1 0-.3 0-.3 0-.3-.1-.6-.3-.8-.2-.2-.5-.3-.8-.3-.2 0-.4 0-.7.1s-.6.2-1 .4l-.1.5c.1 0 .2-.1.4-.1.2 0 .3-.1.4-.1.3 0 .4 0 .5.1.1.1.1.3.1.5 0 .1 0 .3 0 .5 0 .2-.1.3-.1.6l-.6 2.2c-.1.3-.1.5-.1.7 0 .2 0 .3 0 .4 0 .4.1.8.4 1 .3.3.6.4 1.1.4.5 0 .9-.1 1.3-.3.4-.2.8-.5 1.2-.9-.2.7-.4 1.2-.6 1.7"/><path d="m151.6 29c0-4.5-3.8-5.5-7.6-5.5-1.5 0-3 0-4.5.1v.1.3c1.7.2 2 .6 2 2.3v5.5c0 1.5-.4 2.2-2 2.2-1.7 0-4.8-3.7-5.8-4.9 1.4-.4 2.7-1.4 2.7-2.9 0-2.3-2.8-2.6-4.5-2.6-1.4 0-2.8.1-4.2.1v.5c.3 0 .8 0 1.1.2.4.3.4 1.4.4 1.8 0 2.8-.1 5.6-.1 8.4h4.1v-.6c-1.6-.2-2.1-.2-2.1-1.8 0-2.7.1-5.4.1-8.1 1.5 0 3.2.6 3.2 2.4 0 1.3-1.7 2.4-2.9 2.4 1.5 1.9 2.4 3.4 4.5 4.7 1.2.8 1.8.8 3.2.9.1 0 .3 0 .5 0 0 0 .1 0 .1 0h5.9c1.7 0 3.4-.7 4.6-1.9.7-1 1.3-2.2 1.3-3.6m-2.2.2c0 2.7-1.5 4.8-4.3 4.8-1.4 0-1.9-.3-1.9-1.7v-8.1c.3-.1.5-.1.8-.1 3 0 5.4 1.8 5.4 5.1"/><path d="m126.5 29.1c0-3.7-2.6-5.9-6.2-5.9-3.5 0-6.2 2.2-6.2 5.8 0 3.6 2.6 5.9 6.1 5.9 3.5 0 6.3-2.3 6.3-5.8m-2.2 0c0 2.5-.8 5.2-3.8 5.2-1.4 0-2.5-.8-3.3-1.9-.6-1-.9-2.4-.9-3.6 0-2.5.9-5.1 3.8-5.1 1.4 0 2.5.8 3.3 1.9.7 1.1.9 2.4.9 3.5"/><path d="m113.2 26l-.2-2.5h-8.5v.1.4c1.6.2 1.9.4 1.9 2v5.9c0 2.1-1.7 2.1-3.4 2.1-1.4 0-2.3-1.1-3-2.2l-2.3-3.6c.4-.6.8-1.2 1.2-1.8 1-1.5 1.7-2.3 3.6-2.4v-.1-.4h-4.7v.5c.4.1 1.2.1 1.2.7 0 .7-1.2 2.4-1.6 3l-2.7-4.2h-3.7v.1.4c1.6 0 2.6 1.1 3.4 2.4l1.7 2.9-1.6 2.3c-1 1.5-1.6 2.3-3.6 2.4v.1.4h4.8v-.4c-.4-.1-1.2-.3-1.2-.9 0-.6 1.5-2.7 2-3.3l2.9 4.6h10.8v-.1-.3c-1.8-.3-2.1-.2-2.1-2.1v-2.7c1.7 0 2.7-.4 2.8 1.7h.1.3v-2.7c-.6.1-1.3.1-2 .1h-1.1v-4.2h1c1.5 0 3.2-.1 3.5 1.8h.5"/><path d="m90.4 29.1c0-3.7-2.6-6-6.2-6-3.5 0-6.2 2.3-6.2 5.8s2.6 5.9 6.2 5.9c3.5.1 6.2-2.2 6.2-5.7m-2.1 0c0 2.5-.8 5.2-3.8 5.2-1.4 0-2.5-.8-3.3-1.9-.7-1-.9-2.4-.9-3.6 0-2.5.9-5.1 3.9-5.1 1.4 0 2.5.8 3.2 1.9.7 1.1.9 2.4.9 3.5"/><path d="m69.2 29c0-.1 0-.1 0-.2 0-.2 0-.4 0-.6 0-.3 0-.6-.1-.9 0-.3-.1-.5-.1-.8-.1-.4-.2-.9-.3-1.3-.2-.9-.5-1.7-.9-2.5-.3-.6-.6-1.2-1-1.7-.4-.6-.9-1.1-1.4-1.6-.4-.4-.8-.7-1.3-1-.7-.4-1.4-.8-2.1-1-.6-.2-1.3-.3-2-.3-.2 0-.4 0-.7 0-.3 0-.5 0-.8.1-.5.1-1 .2-1.4.4-.7.3-1.4.6-2 1-.6.4-1.1.8-1.5 1.3-.4.4-.7.8-1 1.2-.5.8-1 1.6-1.3 2.4-.4.9-.7 1.8-.8 2.8-.1.5-.2 1.1-.2 1.6 0 .3 0 .6 0 .9 0 .4 0 .7 0 1.1 0 .3 0 .7.1 1 0 .4.1.7.2 1.1.1.6.3 1.3.5 1.9.3.8.6 1.6 1.1 2.4.5.9 1.2 1.7 2 2.5.7.6 1.4 1.2 2.3 1.6.5.2 1 .4 1.5.6.4.1.7.2 1.1.2.2 0 .5 0 .7 0 .1 0 .2 0 .3 0 .3 0 .6 0 1-.1.4-.1.8-.2 1.2-.3.8-.3 1.5-.6 2.2-1.1.5-.4 1-.8 1.5-1.3.4-.4.7-.8 1.1-1.3.4-.6.7-1.2 1-1.8.4-.8.7-1.6.9-2.5.1-.4.2-.8.2-1.2 0-.3.1-.5.1-.8 0-.2 0-.4.1-.7 0-.3 0-.5 0-.8-.2-.1-.2-.2-.2-.3m-.6.2c0 0 0 0 0 0 0 .2 0 .5 0 .7 0 .2 0 .3 0 .5 0 .2 0 .4-.1.7 0 .3-.1.6-.2.9-.2 1-.5 2-1 3-.3.7-.7 1.4-1.2 2-.2.3-.5.6-.8.9-.5.5-1 .9-1.5 1.3-.8.5-1.6.9-2.5 1.1-.3.1-.7.1-1 .2-.3 0-.6 0-.9 0-.6 0-1.2-.1-1.8-.3-.7-.2-1.4-.5-2-.9-.4-.3-.9-.6-1.2-1-.5-.5-1-1.1-1.4-1.7-.3-.5-.6-.9-.8-1.4-.3-.7-.6-1.3-.8-2-.1-.5-.3-1-.4-1.5 0-.3-.1-.5-.1-.8 0-.3-.1-.6-.1-.9 0-.4 0-.7 0-1.1 0-.2 0-.3 0-.5 0-.3 0-.6.1-.9.1-.6.2-1.1.3-1.7.2-.9.5-1.7.9-2.6.2-.5.5-1 .8-1.5.3-.5.7-1 1.1-1.4.5-.5 1-.9 1.5-1.3.7-.5 1.5-.8 2.3-1.1.3-.1.6-.1.9-.2.4-.1.8-.1 1.2 0 .6 0 1.2.1 1.7.3 1 .3 1.8.8 2.6 1.4.2.2.4.4.6.6.7.7 1.3 1.4 1.8 2.3.4.7.8 1.5 1 2.2.2.6.4 1.2.5 1.8.1.3.1.7.2 1 0 .3.1.6.1.9 0 .2 0 .4 0 .6.2 0 .2.2.2.4"/><path d="m52.9 17.1c0 .1 0 .1 0 0-.5.6-.9 1.1-1.3 1.6 0 .1-.1.1-.1.2-.1.1-.1.2-.1.3 0 .1 0 .1 0 .2 0 .1.1.2.2.2 0 0 0 0 .1 0 .1.1.1.2 0 .4-.1.1-.2.1-.3.1 0 0 0 0-.1 0-.2-.1-.4-.1-.6 0-.1 0-.1.1-.1.1-.4.5-.8.9-1.2 1.4 0 0 0 0-.1.1 0 0 0 0 .1 0 .3.1.5.2.6.4.1.2.2.4.3.6.1.2.1.5.1.7 0 .2 0 .5 0 .7 0 .5-.1 1-.4 1.4-.1.2-.3.4-.4.6-.2.2-.3.3-.6.3-.2 0-.3.1-.5.1 0 0-.1 0-.1 0 0 .1.1.3.1.4 0 .1.1.3.1.4 0 .1.1.3.1.4 0 .1 0 .3 0 .4 0 .1 0 .3 0 .4 0 .1 0 .3 0 .4 0 .1 0 .3 0 .4 0 .1 0 .3 0 .4 0 .1 0 .3-.1.4 0 .1-.1.3-.1.4 0 .1-.1.3-.1.4.4 0 .7.1 1 .3.2.2.3.4.5.6.2.3.3.7.4 1 .1.4.1.8.1 1.1 0 .3-.1.6-.2.9-.1.2-.2.3-.3.5-.2.2-.4.3-.6.4 0 0 0 0-.1 0 0 0 0 0 0 .1.3.4.7.8 1 1.2.1.1.1.1.2.2 0 .1.1.1.2.1.2.1.4.1.6 0 0 0 0 0 .1 0 .1-.1.3-.1.3 0 .1.1.1.3 0 .4 0 0 0 0-.1 0-.1.1-.1.1-.1.2-.1.2-.1.4 0 .5 0 0 0 0 .1.1.4.5.9 1.1 1.3 1.6 0 0 0 0 .1.1 0 0 0 0 0-.1.1-.2.2-.4.4-.5.2-.2.4-.2.7-.3.3 0 .7 0 1 .2.3.1.5.3.7.5.2.2.4.5.6.8.2.3.4.6.6.9.1.2.3.4.4.6.1.1.2.2.3.3.1.1.3.2.4.2.2 0 .3 0 .5 0 .2-.1.3-.2.3-.3.1-.3 0-.5-.2-.7-.2-.2-.5-.1-.7.1 0 0 0 0-.1.1-.1.1-.3.1-.4 0-.1-.1-.2-.3-.1-.4 0 0 0-.1.1-.1.2-.2.4-.3.7-.4.4 0 .7.1 1 .3.2.2.3.4.3.6.1.3 0 .6-.1.8-.2.4-.5.6-.9.7-.3.1-.6 0-.9-.1-.3-.1-.5-.3-.7-.5-.2-.2-.4-.5-.6-.8-.2-.3-.3-.5-.5-.8-.2-.2-.3-.5-.5-.7-.1-.2-.3-.3-.5-.4-.1-.1-.3-.2-.5-.2-.1 0-.3 0-.4 0-.2.1-.4.2-.4.4 0 .1 0 .2 0 .3.1.2.2.3.4.4.2 0 .3 0 .5-.1 0 0 0 0 .1-.1.1-.1.2-.1.3-.1.1 0 .2.1.2.2 0 .1 0 .2-.1.2-.2.2-.5.4-.8.4-.4 0-.7-.1-.9-.3-.1-.1-.1-.2-.2-.3 0 0-.1-.1-.1-.1-.6-.7-1.2-1.5-1.9-2.2-.1-.1-.2-.3-.2-.5 0-.1 0-.2 0-.3 0 0 0-.1 0-.1 0 0 0 0-.1 0-.3 0-.5-.2-.7-.4-.1-.1-.2-.2-.2-.3-.5-.6-1-1.2-1.5-1.8 0 0-.1-.1-.1-.1-.2-.2-.3-.4-.4-.7 0-.3.1-.6.3-.8.1-.1.2-.1.3-.1.2.1.3.3.2.5-.2.2-.2.6.2.8.2.1.3.1.5-.1.1-.1.2-.1.2-.2.1-.1.1-.3.1-.4 0-.2 0-.3.1-.5 0-.5 0-.9-.2-1.4-.1-.2-.1-.4-.2-.5-.1-.1-.2-.3-.3-.4-.1-.1-.2-.1-.3-.1-.3-.1-.6.2-.6.5 0 .1 0 .2.1.3.1.1.1.3 0 .4-.1.1-.3.1-.4 0-.1-.1-.2-.2-.2-.3-.2-.4-.1-.8.1-1.1 0 0 .1-.1.1-.1.2-.5.3-1 .4-1.5.1-.4.1-.9.1-1.3 0-.9-.2-1.7-.5-2.5 0-.1-.1-.1-.1-.2-.3-.4-.2-1 0-1.3 0 0 .1-.1.1-.1.1-.1.3-.1.4 0 .1.1.1.3 0 .4-.1.1-.2.3-.1.5.1.2.2.3.4.3.1 0 .2 0 .3-.1.1-.1.3-.2.3-.3.1-.1.2-.3.3-.5.1-.3.2-.5.2-.8 0-.2 0-.3 0-.5 0-.3 0-.6-.1-.9 0-.1-.1-.3-.2-.4 0 0-.1-.1-.1-.1-.2-.2-.4-.2-.6-.1-.2.1-.3.3-.2.6 0 .1.1.1.1.2.1.1.1.1.1.2 0 .1-.1.2-.2.3-.1.1-.2 0-.3 0 0 0 0 0-.1-.1-.1-.2-.2-.3-.3-.6-.1-.4.1-.8.4-1 0 0 .1-.1.1-.1.6-.7 1.1-1.3 1.7-2 .2-.2.4-.3.6-.4 0 0 .1 0 .1 0 0 0 .1 0 .1 0 0 0 0-.1 0-.1 0-.2 0-.4.1-.6 0-.1.1-.2.2-.3.5-.6.9-1.1 1.4-1.7.1-.2.3-.4.4-.5 0 0 .1-.1.1-.1.2-.3.5-.5.8-.6.4-.1.8 0 1.1.3 0 0 .1.1.1.1 0 .1 0 .3-.1.4-.1.1-.3.1-.4 0-.3-.3-.8-.2-.9.2-.1.2 0 .4.1.6.1.2.3.2.5.2.2 0 .4-.1.6-.1.2-.1.3-.2.4-.3.2-.2.4-.4.5-.6.2-.2.3-.5.5-.7.2-.2.3-.5.5-.7.2-.2.4-.4.6-.6.3-.2.6-.3.9-.3.7 0 1.2.5 1.3 1 .1.4 0 .7-.3 1-.2.2-.4.4-.8.4-.4 0-.7-.1-1-.3 0 0-.1-.1-.1-.1-.1-.2 0-.5.2-.5.1 0 .2 0 .3.1 0 0 0 0 .1.1.2.2.5.2.8 0 .1-.1.2-.2.2-.4 0-.2-.1-.4-.2-.5-.1-.1-.3-.2-.4-.2-.2 0-.3.1-.5.1-.1.1-.3.2-.4.3-.2.2-.3.4-.5.5-.2.2-.3.5-.5.7-.2.3-.4.5-.6.7-.2.2-.4.4-.6.5-.2.2-.5.3-.8.4-.2.1-.5.1-.7 0-.1.7-.4.5-.6 0"/><path d="m66.4 40.6c0 0 .1 0 0 0 .4-.4.7-.9 1.1-1.3.1-.1.2-.3.3-.4.1-.1.1-.2.1-.2 0-.1 0-.2 0-.3 0-.1-.1-.2-.2-.2 0 0 0 0-.1-.1-.1-.1-.1-.3.1-.4.1 0 .2 0 .2 0 0 0 0 0 .1 0 .2.1.4.1.6 0 .1 0 .1-.1.2-.2.1-.1.2-.3.4-.4.3-.3.5-.6.8-1 0 0 0 0 .1-.1 0 0 0 0-.1 0-.3-.1-.5-.2-.7-.4-.1-.2-.2-.4-.3-.6-.1-.2-.1-.4-.1-.6 0-.2 0-.4 0-.6 0-.3.1-.6.1-.9.1-.3.1-.5.3-.8.1-.2.2-.4.4-.6.2-.2.4-.3.7-.4.1 0 .2 0 .4 0 0 0 0 0 .1 0 0 0 0 0 0-.1-.1-.2-.1-.5-.2-.7-.1-.3-.1-.5-.1-.8 0-.4 0-.7 0-1.1 0-.6.1-1.3.3-1.9 0 0 0 0 0-.1 0 0 0 0-.1 0-.4 0-.7-.1-1-.4-.2-.2-.4-.5-.5-.8-.1-.3-.2-.6-.3-.9-.1-.3-.1-.7-.1-1 0-.3.1-.5.1-.8.1-.2.1-.4.3-.6.1-.2.3-.4.6-.4.1 0 .1 0 .2 0 0 0 0-.1-.1-.1-.2-.3-.4-.5-.6-.8-.2-.2-.3-.4-.5-.6 0 0-.1-.1-.1-.1-.1-.1-.2-.1-.3-.2-.1 0-.3 0-.4.1 0 0 0 0-.1 0-.1.1-.3 0-.3-.1-.1-.1-.1-.3 0-.4 0 0 0 0 .1-.1 0 0 .1-.1.1-.2.1-.2.1-.4-.1-.6-.1-.1-.1-.1-.2-.2-.4-.5-.8-1-1.2-1.4 0 0 0 0-.1-.1 0 0 0 .1 0 .1-.1.3-.3.5-.6.6-.1.1-.3.1-.5.1-.3 0-.6 0-.9-.2-.2-.1-.4-.3-.6-.4-.2-.2-.4-.5-.6-.7-.2-.3-.4-.5-.6-.8-.1-.2-.3-.4-.4-.6-.1-.1-.2-.3-.4-.4-.1-.1-.3-.2-.5-.2-.1 0-.3-.1-.4 0-.2.1-.4.2-.5.5 0 .1 0 .2 0 .3.1.2.2.3.3.4.2.1.4.1.6-.1 0 0 0 0 .1-.1.2-.1.4 0 .5.2 0 .1 0 .2-.1.3-.2.2-.4.3-.6.4-.5.1-1.1-.1-1.3-.5-.1-.2-.2-.4-.2-.7 0-.2.1-.4.2-.6.2-.3.5-.5.8-.5.2 0 .4 0 .5 0 .3.1.6.2.8.4.2.2.4.4.6.6.2.2.3.4.5.7.2.3.4.5.6.8.2.2.3.4.5.5.1.1.3.2.5.3.1.1.3.1.4.1.1 0 .2 0 .3-.1.2-.1.3-.3.3-.5 0-.1 0-.2-.1-.3-.1-.2-.3-.3-.5-.3-.1 0-.2 0-.3.1 0 0-.1.1-.1.1-.2.1-.4.1-.5-.1 0-.1 0-.2.1-.3.2-.2.5-.4.7-.4.2 0 .4 0 .6.1.2.1.4.3.6.5 0 .1.1.1.1.1.6.7 1.2 1.5 1.8 2.2.1.1.2.2.2.3.1.2.1.3.1.5 0 0 0 0 0 .1 0 0 .1 0 .1 0 .2 0 .4.1.6.3.1 0 .1.1.1.1.6.7 1.1 1.3 1.7 2 0 0 .1.1.1.1.2.2.3.4.4.7 0 .3-.1.6-.3.9-.1.1-.1.1-.2.1-.2 0-.3-.1-.4-.3 0-.1 0-.2.1-.3.1-.1.1-.1.1-.2 0-.1 0-.2-.1-.4-.1-.1-.2-.2-.4-.2-.1 0-.3 0-.4.1-.1.1-.1.1-.2.2-.1.1-.1.3-.2.4 0 .2-.1.4-.1.6 0 .2 0 .3 0 .5 0 .5.1.9.4 1.3.1.1.2.3.3.4.1.1.2.1.3.2.3.1.6-.1.6-.4 0-.1 0-.3-.1-.4 0 0 0 0 0-.1-.1-.1-.1-.3 0-.4.1-.1.3-.1.4 0 .1.1.1.1.2.2.2.4.2.8 0 1.2-.1.1-.1.2-.1.3-.2.4-.3.9-.4 1.4 0 .3-.1.5-.1.8 0 .3 0 .5 0 .8 0 .8.2 1.6.5 2.3 0 0 0 .1.1.1.1.2.2.4.2.6 0 .3-.1.6-.3.8-.2.2-.4.1-.5-.1 0-.1 0-.2 0-.3 0 0 0 0 0-.1.1-.1.2-.3.1-.5-.1-.2-.2-.3-.4-.3-.1 0-.2 0-.3.1-.1.1-.2.1-.3.2-.1.1-.2.3-.3.4-.1.3-.2.5-.3.8 0 .2-.1.5-.1.7 0 .2 0 .5.1.7 0 .1.1.2.1.3 0 .1.1.1.2.2.2.1.3.2.5.1.2-.1.3-.2.3-.4 0-.1 0-.2-.1-.3 0 0 0 0-.1-.1-.1-.1-.1-.3 0-.4.1-.1.3-.1.4 0 .3.4.4.9.1 1.4-.1.1-.1.2-.2.2 0 0-.1.1-.1.1-.6.7-1.1 1.3-1.7 2-.1.2-.3.3-.5.4-.1 0-.2.1-.3.1 0 0 0 0-.1 0 0 0 0 0 0 .1 0 .3 0 .6-.2.8-.3.3-.6.7-.8 1-.4.4-.7.8-1.1 1.3 0 0 0 .1-.1.1-.2.3-.5.5-.9.6-.4.1-.8-.1-1.1-.4-.1-.1-.1-.4.1-.5.1 0 .2 0 .3.1 0 0 0 0 .1.1.3.3.7.2.9-.1 0-.1.1-.2.1-.2 0 0 0-.1 0-.1 0-.3-.2-.4-.5-.5-.2 0-.3 0-.5 0-.2.1-.4.2-.5.3-.2.2-.3.3-.5.5-.2.3-.4.6-.6.9-.2.3-.3.5-.5.8-.1.2-.2.3-.4.5-.2.2-.4.3-.6.5-.2.1-.5.2-.7.2-.6 0-1.1-.5-1.2-1-.1-.4 0-.7.3-1 .2-.2.4-.3.6-.4.4-.1.8 0 1.2.4.2.2.1.4-.1.5-.1 0-.2 0-.3 0-.2-.2-.6-.3-.9 0-.2.2-.2.5 0 .7.2.2.4.3.7.3.2 0 .3-.1.5-.2.2-.1.3-.3.4-.4.1-.2.3-.3.4-.5.2-.2.3-.5.5-.7.2-.3.4-.6.6-.8.2-.2.3-.4.5-.5.2-.2.5-.3.8-.4.2 0 .5-.1.7 0 1-.2 1.3.1 1.5.5"/><path d="m59.7 25.2c.1 0 .1-.1.2-.1.3-.1.5-.2.8-.3.3-.1.6-.1 1-.1.2 0 .4 0 .6 0 1.2 0 2.3 0 3.5 0 0 0 .1 0 .1 0 .1 0 .3.1.2.3 0 0 0 0 0 .1 0 2.6 0 5.2 0 7.8 0 0 0 0 0 .1 0 .1-.1.2-.2.2 0 0-.1 0-.1 0-.1 0-.1 0-.2 0-1.2 0-2.4 0-3.6 0-.3 0-.6 0-.9.1-.3 0-.5.1-.8.2-.2.1-.3.1-.5.2-.1 0-.1.1-.2.1 0 0-.1 0-.1 0-.3-.2-.6-.3-.9-.4-.2-.1-.4-.1-.6-.1-.3 0-.5 0-.8 0-1.2 0-2.5 0-3.7 0 0 0-.1 0-.1 0-.1 0-.2-.1-.2-.2 0 0 0 0 0-.1 0-2.6 0-5.2 0-7.8 0 0 0 0 0-.1 0-.1.1-.2.2-.2 0 0 .1 0 .1 0 1.2 0 2.5 0 3.7 0 .3 0 .6 0 1 .1.3 0 .6.1.9.2.2-.2.3-.1.6 0m5.9 7.4c0-.1 0-.1 0-.1 0-2.4 0-4.7 0-7.1 0 0 0-.1 0-.1 0 0 0 0 0-.1 0 0-.1 0-.1 0-1.1 0-2.1 0-3.2 0-.3 0-.5 0-.8 0-.3 0-.5.1-.8.1-.2.1-.4.1-.6.2 0 0-.1 0-.1.1v.1c0 2.4 0 4.7 0 7.1 0 0 0 .1 0 .1 0 0 0 0 .1 0 .2-.1.3-.1.5-.2.5-.1.9-.2 1.4-.2 1.2 0 2.3 0 3.5 0 0 .1 0 .1.1.1m-11.8-7.3v.1c0 2.4 0 4.7 0 7.1 0 0 0 .1 0 .1 0 0 0 0 0 .1 0 0 .1 0 .1 0 1.1 0 2.3 0 3.4 0 .3 0 .7 0 1 .1.3.1.7.1 1 .3 0 0 0 0 .1 0 0 0 0-.1 0-.1 0-2.4 0-4.7 0-7.1 0 0 0 0 0-.1 0 0 0 0 0-.1 0 0 0 0-.1 0-.1 0-.2-.1-.3-.1-.3-.1-.5-.2-.8-.2-.3 0-.7-.1-1-.1-1.1 0-2.2 0-3.4 0"/><path d="m57.7 21.3c0 0 0 0 0 0 .2-.1.2-.1.3-.1 0 0 .1 0 .1 0 .1-.1.3-.1.4-.2.1 0 .2 0 .3 0 .2 0 .3.2.3.3 0 .2 0 .3-.1.5-.1.1-.1.2-.2.3-.1.2-.2.4-.2.7 0 .2 0 .4 0 .5 0 .1 0 .1 0 .2-.1.2-.2.3-.4.3 0 0-.1 0-.1 0-1 0-2 0-3.1 0 0 0-.1 0-.1 0-.2 0-.4-.2-.4-.4 0 0 0-.1 0-.1 0-.1 0-.2 0-.3 0-.3-.1-.6-.2-.9 0-.1-.1-.2-.2-.2-.2-.2-.2-.5 0-.7.1-.1.1-.1.2-.1.2 0 .4 0 .5 0 .1 0 .2.1.2.1 0 0 0 0 .1 0 .1 0 .2 0 .3.1 0-.1.1-.2.2-.3.1-.1.1-.1.2-.1 0 0 .1 0 .1-.1 0-.1.1-.2.1-.2 0-.1.1-.1.1-.2.2-.2.5-.2.7 0 .1.1.2.2.2.4.1 0 .1 0 .1.1.4.1.5.2.6.4m-.2.9c0 0 0-.1 0 0 .2-.1.2-.2.1-.3-.1-.1-.2-.1-.3-.1-.2.1-.2.3-.1.4 0 0 0 0 .1.1 0 .1-.1.2-.2.3-.1 0-.2 0-.3-.1 0-.1-.1-.1-.1-.2 0 0 0 0 .1 0 .1 0 .1-.1.1-.2 0-.1 0-.1-.1-.2 0 0 0 0-.1 0 0 0 0-.1 0-.1 0-.1.1-.2.2-.2.1 0 .1 0 .2 0 0-.1 0-.1 0-.2 0-.1-.1-.1-.2-.2 0 0-.1 0-.1 0 0 0 0 0-.1 0 0 0 0 0 0-.1 0-.1 0-.2 0-.3 0-.1 0-.1-.1-.2 0 0-.1.1-.1.2 0 .1-.1.2-.1.3 0 0 0 0 0 .1-.1 0-.2 0-.3 0-.1.1-.1.2-.1.3 0 0 .1 0 .1 0 .1 0 .2 0 .3 0 .1.1.1.2.1.3-.1 0-.1.1-.1.2 0 .1.1.1.1.1 0 .1 0 .2-.1.2 0 .1-.1.1-.1.1-.1 0-.2 0-.2-.1-.1-.1-.1-.1-.1-.2.1-.1.1-.1.1-.2 0-.1-.1-.2-.2-.2-.1 0-.2.1-.2.2 0 .1 0 .2.1.2 0 0 0 0 .1 0 0 .1 0 .2-.1.3 0 .1-.1.1-.2.1-.1 0-.2-.1-.3-.2-.1-.1-.1-.2 0-.3 0-.1.1-.1.2-.2 0 0 0 0 .1 0-.1-.2-.2-.2-.4-.1 0 0 0 0 0-.1-.1-.2-.3-.2-.4-.2.1.1.2.2.3.4.1.3.2.7.2 1 0 .1 0 .2 0 .3 0 0 0 0 0 .1.1 0 2.5 0 3.1 0 0 0 0 0 .1 0 0 0 0-.1 0-.1 0-.2 0-.5.1-.7.1-.2.1-.5.2-.7 0-.1.1-.2.2-.2 0 0 0 0 .1-.1-.1 0-.1 0-.1 0-.1 0-.1 0-.2.1-.1 0-.2.1-.2.2-.2-.1-.4-.1-.4.1.1 0 .2.1.2.2 0 .1 0 .2 0 .3 0 .1-.1.1-.1.1-.1.1-.3.1-.4 0-.4 0-.4-.1-.4-.2"/><path d="m58.7 36.3c0 0 0 0 0 0 .1-.2.2-.3.3-.4 0 0 .1 0 .1-.1 0 0 .1 0 .1-.1 0 0 0 0 0-.1 0-.1.1-.3.2-.4.1-.2.3-.2.5-.1.1 0 .1.1.2.1.1.1.2.2.2.4 0 0 0 .1 0 .1.2.1.4.3.5.5 0 0 0 0 .1 0 .1 0 .2-.1.3-.1 0 0 .1 0 .1 0 .1-.1.3-.1.4-.2.1 0 .2 0 .3 0 .1 0 .1.1.2.1.2.2.2.5 0 .7-.1.1-.1.2-.2.3-.1.2-.2.5-.2.7 0 .2 0 .3 0 .5 0 .1 0 .2-.1.2-.1.1-.2.2-.4.2 0 0-.1 0-.1 0-1 0-2 0-3.1 0-.1 0-.2 0-.2 0-.2-.1-.3-.2-.3-.4 0-.1 0-.2 0-.3 0-.4-.1-.7-.2-1 0-.1-.1-.1-.1-.2-.1-.1-.2-.3-.2-.4 0-.2.2-.4.4-.4.3 0 .5 0 .7.1 0 0 .1 0 .1 0 .2.2.3.3.4.3m-.5 2.1c0 0 .1 0 .1 0 .8 0 1.5 0 2.3 0 .2 0 .4 0 .6 0 0 0 .1 0 .1 0 0 0 0 0 0-.1 0-.1 0-.2 0-.2 0-.2 0-.4.1-.6.1-.2.1-.4.2-.6.1-.1.1-.2.2-.3-.1 0-.2 0-.2 0-.1 0-.2.1-.3.2 0 0-.1 0-.1-.1 0 0-.1 0-.1 0 0 0-.1 0-.1.1 0 0-.1.1-.1.1.1 0 .1.1.2.2 0 .1 0 .2 0 .3 0 0 0 .1-.1.1-.1.1-.3.1-.4 0-.1-.1-.1-.2-.1-.3 0 0 .1 0 .1 0 .1 0 .1-.1.1-.2 0-.1-.1-.2-.2-.2-.1 0-.2 0-.2.1 0 .1 0 .2 0 .3 0 0 0 0 .1 0 0 .1 0 .2-.1.2-.1.1-.2.1-.3 0-.1-.1-.1-.2-.1-.3.1 0 .2-.1.2-.2 0-.1 0-.1-.2-.2 0-.1 0-.1 0-.2 0-.1.1-.1.2-.2.1 0 .1 0 .2 0 0 0 0 0 .1 0 0 0 0-.1 0-.1 0-.2-.2-.3-.3-.2 0 0-.1 0-.1 0 0-.1 0-.1 0-.2 0-.1 0-.2-.1-.2 0 0 0-.1-.1-.1 0 .1-.1.1-.1.2 0 .1 0 .2 0 .3 0 0 0 .1 0 .1-.2 0-.2 0-.3 0-.1.1-.1.2-.1.3.1-.1.2-.1.3 0 .1.1.1.2.1.3 0 0 0 0-.1 0-.1 0-.1.1-.1.2 0 .1 0 .1.1.2 0 .1 0 .2-.1.2 0 0-.1.1-.1.1-.2 0-.4-.1-.3-.3 0 0 0 0 .1 0 .1-.1.1-.2 0-.3-.1-.1-.2-.1-.3-.1-.1 0-.1.1-.1.2 0 .1 0 .2.1.2 0 0 0 0 .1 0 0 .1 0 .2 0 .2 0 .1-.1.1-.2.1-.1 0-.2 0-.3-.1-.1-.1-.1-.2 0-.3 0-.1.1-.1.2-.2 0-.1-.1-.1-.1-.2-.1 0-.2 0-.3.1 0 0 0-.1 0-.1-.1-.1-.2-.2-.4-.2 0 0 .1.1.1.1 0 .1.1.2.1.2.2.4.3.8.3 1.2-.2.3-.2.4-.2.5"/><path d="m61.5 21.3c.1 0 .1-.1 0 0 .1-.2.2-.4.3-.4 0 0 .1 0 .1-.1 0 0 0 0 .1-.1 0-.1.1-.2.1-.2.1-.1.1-.2.3-.3.2-.1.4-.1.5.1.1.1.2.2.2.4 0 0 0 .1 0 .1 0 0 .1 0 .1.1.1.1.2.2.3.4 0 0 0 .1 0 .1 0 0 0 0 .1 0 .1 0 .2 0 .2 0 0 0 .1 0 .1 0 .1-.1.3-.1.4-.2.1 0 .2 0 .4 0 .1 0 .1.1.2.1.2.2.2.5 0 .7-.1.1-.1.1-.1.2-.1.2-.2.4-.2.7 0 .2 0 .4 0 .6 0 .1 0 .2-.1.3-.1.1-.2.2-.3.2 0 0-.1 0-.1 0-1 0-2 0-3.1 0-.1 0-.1 0-.2 0-.2-.1-.3-.2-.3-.4 0 0 0-.1 0-.1 0-.1 0-.2 0-.3 0-.3-.1-.6-.2-.9 0 0 0-.1 0-.1 0 0-.1-.1-.1-.1-.1-.1-.1-.2-.2-.3 0-.2.1-.5.4-.5.3 0 .5 0 .7.1 0 0 .1 0 .1 0 .1-.2.2-.2.3-.1m.4.9c0-.1 0-.1 0 0 .1-.1.1-.2.1-.3 0-.1-.1-.2-.2-.2-.1 0-.2 0-.2.2 0 .1 0 .2.1.3 0 0 0 0 .1 0 0 .1 0 .2-.1.3 0 .1-.1.1-.2.1-.1 0-.2 0-.2-.1-.1-.1-.1-.3 0-.4 0-.1.1-.1.1-.1 0 0 0 0 .1 0 0-.1-.1-.1-.1-.2-.1 0-.2 0-.3.1-.1-.1-.1-.2-.2-.2-.1-.1-.2-.1-.3 0 0 0 .1.1.1.2.1.1.1.2.1.3.1.3.2.6.2 1 0 .1 0 .2 0 .3 0 0 0 0 0 .1 0 0 .1 0 .1 0 1 0 2 0 2.9 0 0 0 0 0 .1 0 0 0 0 0 .1 0 0 0 0-.1 0-.1 0-.2 0-.4 0-.6 0-.3.1-.5.2-.8.1-.1.1-.2.2-.3-.1 0-.1 0-.2 0-.1 0-.2.1-.3.3-.1-.1-.2-.1-.2-.1-.1 0-.2.1-.2.2.1 0 .2.1.2.2 0 .1 0 .1 0 .2 0 .1 0 .1-.1.2-.1.1-.3.1-.4 0-.1-.1-.1-.2-.1-.3 0 0 .1 0 .1 0 .1-.1.1-.2.1-.2 0-.1-.1-.2-.2-.2-.1 0-.2 0-.2.1 0 .1 0 .2.1.3 0 0 0 0 .1 0 0 .1-.1.2-.2.3-.1.1-.2 0-.3-.1 0-.1 0-.1-.1-.2.1 0 .2-.1.2-.2 0-.1 0-.1-.2-.2 0-.1 0-.2.1-.3.1-.1.2-.1.4 0 0-.1 0-.2-.1-.2-.1-.1-.2-.1-.4-.1 0 0 0-.1 0-.1 0-.1 0-.2 0-.3 0-.1 0-.1-.1-.2-.1.1-.1.1-.1.2 0 .1 0 .2 0 .3 0 0 0 0 0 .1-.1 0-.2 0-.3 0-.2-.2-.2-.1-.2 0 .1 0 .1 0 .2 0 .1 0 .1.1.2.2 0 .1 0 .1 0 .2 0 0 0 0-.1 0-.1 0-.1.1-.1.2 0 .1 0 .1.1.1 0 .1 0 .2-.1.2 0 0-.1.1-.1.1-.1 0-.1 0-.2 0 0-.1 0-.2 0-.3"/><path d="m66.4 25.5c.1 0 .4 0 .4 0 0 2.8 0 5.6 0 8.4-2.3 0-4.5 0-6.8 0 .2-.1.4-.2.6-.2.2-.1.4-.1.6-.1.2 0 .5 0 .7 0 1.4 0 2.9 0 4.3 0h.1c0 0 0 0 0-.1 0 0 0-.1 0-.1 0-2.6 0-5.2 0-7.8.1 0 .1-.1.1-.1"/><path d="m52.9 33.5h.1 4.3c.2 0 .4 0 .7 0 .3 0 .7.1 1 .2.1 0 .2.1.3.2-.2 0-6.7 0-6.8 0 0 0 0 0 0-.1 0-2.7 0-5.5 0-8.2 0 0 0-.1 0-.1.1 0 .3 0 .4 0 0 0 0 .1 0 .1 0 2.6 0 5.2 0 7.8 0 0 0 0 0 .1"/><path d="m61.9 27.7c-.1 0-.2 0-.3 0 0-.1 0-.1 0-.2 0-.1 0-.1 0-.2 0-.1 0-.1 0-.2s0 0 0 0c-.1.2-.3.3-.4.5 0 0 0 0 0-.1-.1-.1-.2-.3-.3-.4 0 0 0-.1-.1-.1 0 0 0 .1 0 .1 0 0 0 .1 0 .1v.1c0 0 0 .1 0 .1 0 0 0 .1 0 .1-.1 0-.2 0-.3 0 0-.3 0-.7 0-1 .1 0 .2 0 .3 0 .1.1.2.3.3.4 0 0 0 0 .1.1.1-.2.3-.3.4-.5.1 0 .2 0 .3 0 0 .5 0 .8 0 1.2"/><path d="m61.1 30.7c0 .1 0 .1 0 .2 0 .1 0 .1 0 .2v.2c-.1 0-.1 0-.1 0h-.1c0-.3 0-.7 0-1 .1 0 .2 0 .3 0 .1.2.3.4.4.5 0 0 .1-.1.1-.1 0 0 .1-.1.1-.1 0 0 .1-.1.1-.1 0 0 .1-.1.1-.1 0 0 .1-.1.1-.1.1 0 .2 0 .3 0 0 0 0 0 0 .1 0 .5 0 .9 0 1-.1 0-.2 0-.2 0 0 0 0 0 0-.1 0-.2 0-.3 0-.5v-.1c0 0 0 0 0 0-.1.1-.2.3-.3.4 0 0 0 0-.1.1-.1-.1-.1-.2-.2-.3-.4 0-.5-.1-.5-.2"/><path d="m63.5 30.5c0 0-.1 0 0 0-.3 0-.5 0-.7 0 0 0-.1 0-.1 0 0 0 0 .1 0 .1 0 0 0 0 .1 0 .1 0 .3 0 .4 0 0 0 .1 0 .1 0 0 .1 0 .2 0 .3-.1 0-.1 0-.2 0-.1 0-.1 0-.2 0h-.2c0 0 0 .1 0 .1 0 0 .1 0 .1 0 .2 0 .4 0 .7 0h.1c0 0 0 .1 0 .1 0 0 0 .1 0 .1 0 0-.1 0-.1 0-.3 0-.6 0-.8 0 0 0-.1 0-.1 0 0 0 0 0-.1 0 0-.3 0-.7 0-1 0 0 0 0 0-.1.3 0 .7 0 1 0 0 .2 0 .3 0 .4"/><path d="m63.5 27.3v-.6c.1 0 .1 0 .1 0h.1c0 .3 0 .7 0 1-.1 0-.1 0-.1 0h-.1c-.1-.1-.2-.2-.3-.3-.1-.1-.2-.2-.3-.3 0 .2 0 .3 0 .5 0 0 0 .1 0 .1-.1 0-.2 0-.3 0 0-.1 0-1 0-1.1.1 0 .2 0 .3 0 .2.2.4.5.6.7"/><path d="m63.3 29.5c-.1 0-.2 0-.3 0-.1 0-.2-.1-.2-.1-.1-.1-.2-.3-.2-.4 0-.2.1-.4.3-.4.2-.1.5-.1.7 0 .2.1.3.2.3.4.1.2 0 .5-.2.6-.1-.1-.2-.1-.4-.1m0-.3c.1 0 .1 0 .2-.1.1-.1.2-.3 0-.4-.1-.1-.4-.1-.5 0-.1.1-.1.2-.1.3 0 .1.1.1.2.2 0 0 .1 0 .2 0"/><path d="m64.5 30.2c.2.4.4.7.6 1.1-.1 0-.2 0-.3 0 0 0 0-.1-.1-.1 0 0 0-.1-.1-.1h-.6c0 .1-.1.1-.1.2-.1 0-.3 0-.3 0 .2-.4.4-.7.6-1.1.1 0 .2 0 .3 0m-.2.4c0 0 0 0 0 0 0 .1-.1.1-.1.2 0 0 0 0 0 .1.1 0 .2 0 .2 0 0-.2 0-.2-.1-.3"/><path d="m65 27.7c0-.1-.1-.1-.1-.2-.1 0-.5 0-.6 0 0 .1-.1.1-.1.2h-.3c0 0 0 0 0 0 .2-.3.4-.7.5-1 .1 0 .2 0 .3 0 .2.4.4.7.6 1.1-.1-.1-.2-.1-.3-.1m-.4-.7c0 .1-.1.1-.1.2 0 0 .1 0 .1 0 0 0 .1 0 .1 0 0-.1 0-.1-.1-.2"/><path d="m61.3 29.5c0-.1 0-.2 0-.3 0-.1 0-.2 0-.3 0-.1 0-.2 0-.3-.1 0-.2 0-.2 0-.1 0-.1 0-.2 0 0-.1 0-.2 0-.3.4 0 .8 0 1.1 0 0 .1 0 .1 0 .3 0 0 0 0-.1 0-.1 0-.2 0-.3 0 0 0-.1 0-.1 0 0 0 0 .1 0 .1 0 .2 0 .4 0 .6 0 0 0 .1 0 .1 0 .1-.1.1-.2.1"/><path d="m62.5 29.5c-.1 0-.2 0-.3 0 0-.2 0-1 0-1 .1 0 .2 0 .3 0 0 0 0 0 0 .1 0 .2 0 .5 0 .9"/><path d="m62.4 27.7c-.1 0-.2 0-.3 0 0-.3 0-.7 0-1 .1 0 .2 0 .3 0 0 .3 0 .6 0 1"/><path d="m64.3 28.9h.4c0 .1 0 .1 0 .3-.1 0-.1 0-.2 0-.1 0-.1 0-.2 0 0-.1 0-.2 0-.3"/><path d="m58.4 27.7c-.1 0-.2 0-.3 0 0-.1 0-.2 0-.3 0-.1 0-.2 0-.3-.1.1-.1.1-.2.2 0 .1-.1.1-.1.2 0 .1-.1.1-.1.2-.1-.1-.1-.1-.1-.2 0-.1-.1-.1-.1-.2 0-.1-.1-.1-.1-.2 0 .2 0 .3 0 .5 0 0 0 .1 0 .1-.1 0-.2 0-.3 0 0-.1 0-.2 0-.4 0-.1 0-.2 0-.4 0-.1 0-.2 0-.4.1 0 .1 0 .1 0h.1c0 0 0 0 0 .1.1.1.2.3.3.4 0 0 0 0 .1.1.1-.2.3-.4.4-.5.1 0 .2 0 .3 0 0 0 0 0 0 .1 0 .3 0 .9 0 1"/><path d="m56.8 29.3c.1-.1.1-.1.2-.2 0 0 .1 0 .1 0 .2.1.3.1.5.1 0 0 .1 0 .1 0 0 0 0 0 .1 0 0 0 0-.1 0-.1 0 0-.1 0-.1 0-.1 0-.2 0-.3 0-.1 0-.1 0-.2 0 0 0 0 0-.1 0-.2-.1-.2-.2-.1-.4 0-.1.1-.1.1-.1.1 0 .1-.1.2-.1.2 0 .3 0 .5 0 .1 0 .2.1.3.2 0 .1-.1.1-.2.2 0 0 0 0-.1 0-.1-.1-.3-.1-.5-.1 0 0-.1 0-.1 0 0 0 0 0-.1 0 0 0 .1 0 .1 0 .1 0 .2 0 .3 0 .1 0 .1 0 .2.1.3.1.2.4.1.5 0 0-.1.1-.1.1 0 0-.1 0-.1 0-.2 0-.4 0-.6 0 0-.1-.1-.1-.2-.2"/><path d="m54.1 27.7c0 0 0 0 0 0 0-.4 0-.7 0-1.1.2 0 .4 0 .6 0 .1 0 .2 0 .3.1.2.1.3.3.3.5 0 .3-.2.5-.4.5 0 0-.1 0-.2 0-.1 0-.3 0-.6 0m.3-.3c0 0 0 0 0 0 .2 0 .3 0 .4 0 .1 0 .1 0 .2-.1.1-.1.1-.2.1-.3 0-.1-.1-.2-.2-.2 0 0-.1 0-.1 0-.1 0-.2 0-.3 0-.1.2-.1.6-.1.6"/><path d="m55.4 29.5c-.1 0-.2 0-.3 0-.1-.1-.2-.2-.3-.3-.1-.1-.2-.2-.3-.3 0 0 0 0 0 .1 0 .2 0 .3 0 .5 0 0 0 .1 0 .1-.1 0-.1 0-.1 0h-.1c0 0 0 0 0-.1 0-.3 0-.7 0-1 .1 0 .2 0 .3 0 .2.2.4.4.6.7 0 0 0 0 0-.1 0-.2 0-.3 0-.5 0 0 0-.1 0-.1.1 0 .2 0 .3 0 0 0 0 0 0 .1-.1.2-.1.5-.1.9"/><path d="m56.2 27.7c-.1 0-.2 0-.3-.1-.1 0-.1-.1-.2-.1-.2-.2-.2-.6 0-.8.2-.1.3-.2.5-.2.1 0 .2 0 .3.1.1 0 .2.1.2.2.2.2.2.6-.1.8-.1.1-.2.1-.3.2 0-.1-.1-.1-.1-.1m0-.2c0 0 0 0 0 0 .1 0 .2 0 .3-.1.1-.1.1-.2.1-.3 0-.1-.1-.2-.1-.2-.1-.1-.2-.1-.3 0-.1 0-.1 0-.2.1-.2.1-.1.4 0 .5 0-.1.1 0 .2 0"/><path d="m57.5 30.2c0 .1 0 .1 0 0 0 .3 0 .4 0 .6 0 0 0 .1 0 .1 0 0 0 .1.1.1 0 0 .1 0 .1 0 .1 0 .2 0 .3 0 .1 0 .1-.1.1-.2 0-.2 0-.4 0-.6 0 0 0-.1 0-.1.1 0 .2 0 .3 0 0 0 0 0 0 .1 0 .2 0 .4 0 .7 0 .1 0 .2-.1.3-.1 0-.1.1-.2.1-.2 0-.4 0-.6 0-.1 0-.1-.1-.2-.1-.1-.1-.1-.1-.1-.2 0-.2 0-.5 0-.7.2-.1.3-.1.3-.1"/><path d="m55.5 28.4c.1 0 .2 0 .3 0 .1.2.2.5.4.7.1-.2.2-.4.3-.5 0 0 0-.1.1-.1.1 0 .3 0 .3 0-.2.4-.4.7-.6 1.1h-.3c-.1-.5-.3-.8-.5-1.2"/><path d="m56.2 30.2c.1 0 .2 0 .3 0 0 0 0 .1 0 .1 0 .2 0 .4 0 .6 0 0 0 .1 0 .1.1 0 .2 0 .2 0 .1 0 .2 0 .2 0h.2c0 0 0 .1 0 .1 0 0 0 .1 0 .1-.1 0-.9 0-1 0 .1-.3.1-.6.1-1"/><path d="m56.1 31c0 .1 0 .2 0 .3-.3 0-.9 0-1 0 0-.3 0-.7 0-1 .1 0 .2 0 .3 0 0 0 0 .1 0 .1 0 .2 0 .4 0 .6 0 0 0 0 .1 0 .1 0 .3 0 .6 0"/><path d="m54.8 31.3c-.1 0-.2 0-.3 0 0-.1 0-.7 0-1 0 0 0 0 0-.1.1 0 .2 0 .3 0 0 0 0 0 0 .1.1.3.1.6 0 1"/><path d="m58.6 26.6h.3c0 0 0 0 0 .1 0 .2 0 .4 0 .6 0 .1 0 .2 0 .3 0 0 0 .1 0 .1-.1 0-.1 0-.1 0h-.1c-.1-.4-.1-.7-.1-1.1"/><path d="m58.5 29.1c0-.1 0-.2 0-.3.1 0 .1 0 .2 0 .1 0 .1 0 .2 0 0 .1 0 .2 0 .3 0 0-.1 0-.1 0 0 0-.1 0-.1 0-.1 0-.2.1-.2 0"/></g></svg>